HIERARCHY
ROOT RootJoint
{
    OFFSET   0.000000   0.000000   0.000000
    CHANNELS 6 Xposition Yposition Zposition Xrotation Yrotation Zrotation
    JOINT pelvis_lowerback
    {
        OFFSET   0.000000   0.093605   0.000000
        CHANNELS 3 Xrotation Yrotation Zrotation
        JOINT lowerback_torso
        {
            OFFSET   0.000000   0.100000   0.000000
            CHANNELS 3 Xrotation Yrotation Zrotation
            JOINT torso_head
            {
                OFFSET   0.000000   0.282350   0.000000
                CHANNELS 3 Xrotation Yrotation Zrotation
                End Site
                {
                    OFFSET   0.000000   0.192650   0.000000
                }
            }
            JOINT rTorso_Clavicle
            {
                OFFSET  -0.001000   0.157500   0.000000
                CHANNELS 3 Xrotation Yrotation Zrotation
                JOINT rShoulder
                {
                    OFFSET  -0.117647   0.000000   0.000000
                    CHANNELS 3 Xrotation Yrotation Zrotation
                    JOINT rElbow
                    {
                        OFFSET  -0.245000   0.000000   0.000000
                        CHANNELS 3 Xrotation Yrotation Zrotation
                        JOINT rWrist
                        {
                            OFFSET  -0.240000   0.000000   0.000000
                            CHANNELS 3 Xrotation Yrotation Zrotation
                            End Site
                            {
                                OFFSET  -0.116353  -0.002500   0.000000
                            }
                        }
                    }
                }
            }
            JOINT lTorso_Clavicle
            {
                OFFSET   0.001000   0.157500   0.000000
                CHANNELS 3 Xrotation Yrotation Zrotation
                JOINT lShoulder
                {
                    OFFSET   0.117647   0.000000   0.000000
                    CHANNELS 3 Xrotation Yrotation Zrotation
                    JOINT lElbow
                    {
                        OFFSET   0.245000   0.000000   0.000000
                        CHANNELS 3 Xrotation Yrotation Zrotation
                        JOINT lWrist
                        {
                            OFFSET   0.240000   0.000000   0.000000
                            CHANNELS 3 Xrotation Yrotation Zrotation
                            End Site
                            {
                                OFFSET   0.116353  -0.002500   0.000000
                            }
                        }
                    }
                }
            }
        }
    }
    JOINT rHip
    {
        OFFSET  -0.100000  -0.051395   0.000000
        CHANNELS 3 Xrotation Yrotation Zrotation
        JOINT rKnee
        {
            OFFSET   0.000000  -0.410000   0.000000
            CHANNELS 3 Xrotation Yrotation Zrotation
            JOINT rAnkle
            {
                OFFSET   0.000000  -0.390000   0.000000
                CHANNELS 3 Xrotation Yrotation Zrotation
                JOINT rToeJoint
                {
                    OFFSET   0.000000  -0.050000   0.130000
                    CHANNELS 3 Xrotation Yrotation Zrotation
                    End Site
                    {
                        OFFSET  -0.010000   0.002000   0.060000
                    }
                }
            }
        }
    }
    JOINT lHip
    {
        OFFSET   0.100000  -0.051395   0.000000
        CHANNELS 3 Xrotation Yrotation Zrotation
        JOINT lKnee
        {
            OFFSET   0.000000  -0.410000   0.000000
            CHANNELS 3 Xrotation Yrotation Zrotation
            JOINT lAnkle
            {
                OFFSET   0.000000  -0.390000   0.000000
                CHANNELS 3 Xrotation Yrotation Zrotation
                JOINT lToeJoint
                {
                    OFFSET   0.000000  -0.050000   0.130000
                    CHANNELS 3 Xrotation Yrotation Zrotation
                    End Site
                    {
                        OFFSET   0.010000   0.002000   0.060000
                    }
                }
            }
        }
    }
}
MOTION
Frames: 11
Frame Time:   0.008333
 -2.376719   0.925631   3.975860   0.000000   0.000000   0.000000   0.000000   0.000000   0.000000   0.000000   0.000000   0.000000   0.000000   0.000000   0.000000   0.000000   0.000000   0.000000   0.000000   0.000000   0.000000   0.000000   0.000000   0.000000   0.000000   0.000000   0.000000   0.000000   0.000000   0.000000   0.000000   0.000000   0.000000   0.000000   0.000000   0.000000   0.000000   0.000000   0.000000   0.000000   0.000000   0.000000   0.000000   0.000000   0.000000   0.000000   0.000000   0.000000   0.000000   0.000000   0.000000   0.000000   0.000000   0.000000   0.000000   0.000000   0.000000   0.000000   0.000000   0.000000   0.000000   0.000000   0.000000
 -2.376592   0.925862   3.973775   1.295376   0.102722   0.035890  -1.104209   0.032789  -0.047323   0.058229  -0.109233   0.034562  -0.436783   0.294823  -0.036472   0.554240  -0.903301  -0.193846   1.369550  -0.201593   2.235728   0.056954   3.068317  -0.059207   0.048345  -0.607919  -1.939013   0.400534   0.491075  -0.079552   1.662602   0.401973  -2.039472   0.049056  -2.620752   0.053648   0.035010   0.485355   2.154541  -2.416053  -0.288396  -0.147437   2.231351   0.001981  -0.003706  -1.252427  -0.573535  -0.097726   0.059664   0.000106  -0.000396  -2.388965   0.100219   0.045652   2.369234  -0.001647   0.004215  -1.612932   0.257821  -0.032035   0.359978  -0.000165   0.001441
 -2.376467   0.926254   3.971539   2.475985   0.229444   0.076535  -2.028408   0.050694  -0.094238   0.187268  -0.239323   0.058972  -0.838543   0.583295  -0.066175   1.090619  -1.794455   0.183612   2.728332  -0.334214   4.925692   0.132395   6.007400  -0.106420   0.181151  -0.438148  -3.296224   0.796752   0.949771  -0.744675   3.315896   0.706885  -4.568637   0.114298  -5.130759   0.096887   0.154790   0.331396   3.731603  -4.777835  -0.564879  -0.396897   4.468646   0.004944  -0.006362  -2.414886  -1.117678  -0.204687   0.101450   0.000191  -0.000575  -4.647074   0.199036   0.169873   4.762582  -0.004468   0.008318  -3.113402   0.505570  -0.053639   0.657880  -0.000502   0.002383
 -2.376367   0.926491   3.969346   3.571080   0.366293   0.116057  -2.838262   0.051606  -0.142128   0.358267  -0.379531   0.075228  -1.199687   0.853327  -0.090095   1.600926  -2.603420   0.935312   4.072300  -0.386382   7.913684   0.207933   8.756681  -0.140523   0.322878  -0.101954  -4.026570   1.172884   1.334662  -1.777166   4.955876   0.900644  -7.418394   0.179700  -7.483428   0.128883   0.284674   0.015800   4.653443  -7.038321  -0.808156  -0.721908   6.555605   0.008085  -0.007967  -3.500326  -1.624754  -0.316544   0.138030   0.000265  -0.000665  -6.735492   0.283083   0.366115   7.018033  -0.007725   0.011601  -4.512654   0.738983  -0.066760   0.929231  -0.000922   0.002999
 -2.376297   0.926353   3.967281   4.601883   0.505118   0.152881  -3.562017   0.038578  -0.192011   0.543221  -0.525683   0.085023  -1.528545   1.105449  -0.109993   2.088265  -3.328384   1.918151   5.404835  -0.349354  11.106154   0.274959  11.325578  -0.163724   0.459557   0.269743  -4.280964   1.527534   1.649787  -3.026789   6.585672   0.975636 -10.485850   0.237811  -9.686833   0.151575   0.413449  -0.357941   5.078969  -9.201168  -1.017261  -1.104051   8.485669   0.011012  -0.008938  -4.515826  -2.096697  -0.431239   0.164303   0.000304  -0.000667  -8.668148   0.350375   0.622886   9.126877  -0.010974   0.014079  -5.819301   0.958288  -0.072731   1.171486  -0.001339   0.003334
 -2.376291   0.925662   3.965403   5.577574   0.645141   0.188839  -4.218484   0.016164  -0.250302   0.727394  -0.672730   0.076412  -1.829256   1.340399  -0.123126   2.553822  -3.982419   3.040720   6.725945  -0.225592  14.442282   0.329573  13.724090  -0.178037   0.586316   0.639172  -4.195768   1.861883   1.913488  -4.437210   8.126980   0.936312 -13.566474   0.283899 -11.748948   0.165322   0.537031  -0.756215   5.085280 -11.265762  -1.193288  -1.528056  10.270321   0.013478  -0.009465  -5.466180  -2.535812  -0.547235   0.181277   0.000306  -0.000613 -10.455726   0.400512   0.929342  11.098462  -0.014000   0.015925  -7.039606   1.163904  -0.072844   1.387686  -0.001714   0.003468
 -2.376373   0.924284   3.963748   6.502710   0.788424   0.223572  -4.822021  -0.012903  -0.320944   0.902093  -0.818520   0.047178  -2.104497   1.559340  -0.132362   2.998396  -4.580108   4.235932   8.034080  -0.021265  17.876791   0.370678  15.961570  -0.185200   0.700822   0.986653  -3.878926   2.175810   2.141023  -5.933598   9.561847   0.802503 -16.568213   0.316759 -13.677513   0.171690   0.651002  -1.159821   4.795884 -13.230418  -1.338138  -1.980135  11.922829   0.015392  -0.009630  -6.355485  -2.944225  -0.663234   0.191159   0.000283  -0.000533 -12.107374   0.433845   1.276615  12.943538  -0.016658   0.017313  -8.179168   1.356433  -0.068167   1.581348  -0.002027   0.003467
 -2.376380   0.921503   3.962400   6.991785   0.865592   0.251117  -4.961803  -0.007771  -0.350778   1.113908  -0.921090   0.025184  -2.495869   1.636934  -0.152509   3.411961  -5.126058   4.832030   9.450637   0.317469  21.139511   0.402739  18.451180  -0.198890   0.725152   1.186181  -2.564838   2.412866   2.505104  -6.847867  10.930047   0.474290 -19.497835   0.351489 -16.042418   0.183223   0.682244  -1.510274   3.625378 -14.835045  -1.687716  -2.410159  14.188893   0.017202  -0.016145  -7.614226  -3.611666  -0.632070   0.028346  -0.000169   0.001036 -13.272994   0.541714   1.618222  14.795647  -0.018117   0.018836  -9.501818   1.607620  -0.099249   1.640040  -0.001782   0.003023
 -2.376365   0.917563   3.961364   7.402625   0.946343   0.272669  -5.100991   0.001679  -0.368419   1.335322  -1.007436   0.005496  -2.851858   1.703935  -0.166745   3.792906  -5.627422   5.200084  10.746862   0.702126  24.052970   0.411646  20.793297  -0.202520   0.761310   1.499334  -1.315574   2.630989   2.849794  -7.540088  12.185932   0.109379 -22.120860   0.364505 -18.273198   0.185586   0.724800  -2.038542   2.518358 -16.261989  -2.024347  -2.817452  16.426976   0.017685  -0.021143  -8.785196  -4.240632  -0.617612  -0.124250  -0.000510   0.002132 -14.332322   0.638937   1.939817  16.557793  -0.018512   0.019856 -10.736527   1.842983  -0.122491   1.684887  -0.001540   0.002602
 -2.376348   0.912581   3.960573   7.779305   1.030035   0.290960  -5.253053   0.018341  -0.383156   1.532454  -1.080194  -0.014611  -3.184348   1.766345  -0.177084   4.145071  -6.103350   5.420723  11.934373   1.100490  26.677520   0.404889  22.979894  -0.198709   0.793552   1.816926  -0.270531   2.835481   3.184653  -8.076665  13.342113  -0.260484 -24.485177   0.362325 -20.354117   0.181070   0.760540  -2.566766   1.593762 -17.545595  -2.332214  -3.200671  18.549321   0.017146  -0.024215  -9.876952  -4.827673  -0.616620  -0.257163  -0.000729   0.002757 -15.329976   0.724717   2.239523  18.205788  -0.018120   0.020313 -11.888340   2.062592  -0.139190   1.729710  -0.001340   0.002256
 -2.376383   0.909002   3.959873   8.035481   0.920967  -0.006571  -5.313785   0.104617  -0.132882   1.742014  -1.087118   0.077084  -3.498546   1.826850  -0.176417   4.449994  -6.505211   5.654582  13.005867   1.532453  29.080816   0.391403  25.011423  -0.190794   0.820762   2.060602   0.541993   3.023837   3.501327  -8.675493  14.402648  -0.646157 -26.708350   0.353656 -22.286299   0.173479   0.785082  -3.005784   0.829617 -19.125238  -2.754943  -3.068515  21.012060   0.011489  -0.031203 -10.596536  -5.432049  -0.481338  -0.308096  -0.000566   0.002705 -16.161205   0.782905   2.826076  19.717442  -0.017076   0.018555 -12.957389   2.270653  -0.147204   1.816966  -0.001247   0.002038
